<svg width="400" height="200" viewBox="0 0 400 200" xmlns="http://www.w3.org/2000/svg">
  <defs>
    <linearGradient id="bgGradient" x1="0%" y1="0%" x2="100%" y2="100%">
      <stop offset="0%" style="stop-color:#667eea;stop-opacity:1" />
      <stop offset="100%" style="stop-color:#764ba2;stop-opacity:1" />
    </linearGradient>
  </defs>
  
  <!-- Background -->
  <rect width="400" height="200" rx="15" fill="url(#bgGradient)"/>
  
  <!-- Shield Icon -->
  <path d="M80 40 L120 60 L120 120 Q120 160 80 180 Q40 160 40 120 L40 60 Z" 
        fill="#fff" opacity="0.2"/>
  <path d="M80 50 L110 65 L110 115 Q110 145 80 160 Q50 145 50 115 L50 65 Z" 
        fill="#fff" opacity="0.4"/>
  <path d="M80 60 L100 70 L100 110 Q100 130 80 140 Q60 130 60 110 L60 70 Z" 
        fill="#fff"/>
  
  <!-- Text -->
  <text x="200" y="80" font-family="Arial, sans-serif" font-size="28" font-weight="bold" fill="#fff">CloudSentry</text>
  <text x="200" y="110" font-family="Arial, sans-serif" font-size="16" fill="#fff" opacity="0.9">Real-time Cloud Security</text>
  <text x="200" y="130" font-family="Arial, sans-serif" font-size="16" fill="#fff" opacity="0.9">Auditing Platform</text>
  
  <!-- Decorative elements -->
  <circle cx="350" cy="50" r="3" fill="#fff" opacity="0.6"/>
  <circle cx="360" cy="60" r="2" fill="#fff" opacity="0.4"/>
  <circle cx="370" cy="45" r="2" fill="#fff" opacity="0.4"/>
  
  <circle cx="50" cy="170" r="2" fill="#fff" opacity="0.4"/>
  <circle cx="60" cy="175" r="3" fill="#fff" opacity="0.6"/>
  <circle cx="70" cy="170" r="2" fill="#fff" opacity="0.4"/>
</svg>
